<?xml version="1.0" standalone="no"?>
<!DOCTYPE svg PUBLIC "-//W3C//DTD SVG 20010904//EN"
 "http://www.w3.org/TR/2001/REC-SVG-20010904/DTD/svg10.dtd">
<svg version="1.0" xmlns="http://www.w3.org/2000/svg"
 width="120.000000pt" height="120.000000pt" viewBox="0 0 120.000000 120.000000"
 preserveAspectRatio="xMidYMid meet">
<metadata>
Created by potrace 1.11, written by Peter Selinger 2001-2013
</metadata>
<g transform="translate(0.000000,120.000000) scale(0.100000,-0.100000)"
fill="#000000" stroke="none">
<path d="M640 1072 c-43 -24 -45 -30 -16 -66 l23 -28 37 17 c20 10 36 19 36
21 0 4 -41 74 -44 74 -1 0 -17 -8 -36 -18z"/>
<path d="M515 1013 c-16 -8 -32 -17 -34 -19 -2 -2 8 -21 23 -43 27 -39 28 -39
47 -20 10 10 26 19 34 19 20 0 19 6 -6 46 -24 39 -24 39 -64 17z"/>
<path d="M663 943 c-46 -19 -83 -41 -83 -48 0 -46 97 -58 132 -16 21 27 37 20
30 -14 -2 -14 1 -31 7 -38 13 -16 6 -24 -36 -42 -22 -9 -50 -41 -94 -106 l-62
-92 22 -18 c18 -15 19 -19 7 -31 -12 -12 -14 -65 -7 -131 1 -5 7 -5 14 -1 10
6 10 4 0 -7 -15 -15 -17 -33 -4 -24 5 3 13 1 16 -5 4 -6 1 -9 -6 -8 -15 3 -13
-65 2 -70 5 -2 9 -8 9 -13 0 -6 -6 -7 -12 -3 -10 6 -10 4 0 -7 6 -7 12 -23 12
-35 0 -13 5 -26 10 -29 6 -3 10 -16 10 -27 0 -12 3 -18 7 -14 4 4 8 15 8 24 0
9 5 16 12 15 7 -2 21 11 33 27 12 17 18 30 13 30 -4 0 -2 4 4 8 7 5 14 20 15
35 1 15 5 27 8 27 8 0 1 120 -8 138 -18 35 0 76 82 196 47 68 86 130 86 136 0
17 -123 179 -135 179 -5 0 -47 -16 -92 -36z"/>
<path d="M417 917 l-28 -22 56 -67 c30 -38 57 -68 60 -68 19 0 55 26 50 37 -8
22 -96 143 -103 143 -4 0 -20 -10 -35 -23z"/>
<path d="M335 838 l-26 -23 59 -58 c58 -57 58 -57 76 -38 18 20 17 22 -32 81
l-51 60 -26 -22z"/>
<path d="M536 725 c-21 -7 -53 -27 -70 -44 -18 -17 -34 -30 -37 -28 -2 2 -16
7 -30 11 -27 6 -27 6 -17 -37 5 -23 22 -59 39 -79 l29 -37 -3 -153 c-3 -157 4
-223 27 -246 11 -11 16 -6 30 27 23 58 24 389 1 397 -22 9 -18 38 8 71 13 15
40 52 61 81 42 58 36 64 -38 37z"/>
</g>
</svg>
